<?xml version="1.0" encoding="UTF-8"?><svg id="_图层_2" xmlns="http://www.w3.org/2000/svg" viewBox="0 0 851.6 286.99"><defs><style>.cls-1{fill:#7f7f7f;}</style></defs><g id="_图层_1-2"><g><path class="cls-1" d="M350.38,286.99c40.22,0,73.18-31.64,75.32-71.33,.1-1.8-1.3-3.33-3.11-3.33h-25.81c-1.61,0-2.96,1.23-3.09,2.83-1.83,22.29-20.55,39.86-43.31,39.86s-41.47-17.58-43.3-39.86c-.13-1.6-1.48-2.83-3.09-2.83h-25.81c-1.8,0-3.21,1.53-3.11,3.33,2.13,39.69,35.1,71.33,75.32,71.33Z"/><rect class="cls-1" x="58.19" width="31.97" height="31.97" rx="1.58" ry="1.58"/><rect class="cls-1" x="58.19" y="60.92" width="31.97" height="151.41" rx="3.11" ry="3.11"/><path class="cls-1" d="M192.66,87.61c29.44,0,33.84,21.8,33.84,34.8v86.94c0,1.64,1.33,2.97,2.97,2.97h26.03c1.64,0,2.97-1.33,2.97-2.97V116.6c.02-.28,1.35-23.54-13.86-39.77-9.89-10.56-24.51-15.91-43.47-15.91-29.23,0-45.26,15.33-50.8,21.93l-1.35,1.6v-20.55c0-1.64-1.33-2.97-2.97-2.97h-26.03c-1.64,0-2.97,1.33-2.97,2.97V209.35c0,1.64,1.33,2.97,2.97,2.97h26.03c1.64,0,2.97-1.33,2.97-2.97v-78.09c0-4.59,.75-16.4,7.73-26.78,7.53-11.19,19.61-16.87,35.93-16.87Z"/><path class="cls-1" d="M412.25,93.81l-.24-.35h13.79v-31.97h-77.51l-.53,.07c-19.56,.67-37.87,8.82-51.55,22.93-15.71,16.22-23.33,38.3-20.78,61.09,4.06,36.13,34.11,64.5,70.4,66.63,47.09,2.77,85.67-37.94,79.27-85.67-1.58-11.76-6.19-22.9-12.85-32.72Zm-57.42,86.33c-27.45,2.75-50.42-20.23-47.68-47.68,2.03-20.32,18.46-36.75,38.78-38.78,27.44-2.74,50.42,20.23,47.68,47.68-2.03,20.32-18.46,36.75-38.78,38.78Z"/><rect class="cls-1" y="3.8" width="31.97" height="212.33" rx="3.77" ry="3.77"/><rect class="cls-1" x="819.63" y="64.72" width="31.97" height="151.41" rx="3.4" ry="3.4"/><path class="cls-1" d="M609.84,87.61c29.44,0,33.84,21.8,33.84,34.8v86.2c0,2.05,1.66,3.72,3.72,3.72h24.54c2.05,0,3.72-1.66,3.72-3.72V116.6c.02-.28,1.35-23.54-13.86-39.77-9.89-10.56-24.51-15.91-43.47-15.91-29.23,0-45.26,15.33-50.8,21.93l-1.35,1.6v-19.81c0-2.05-1.66-3.72-3.72-3.72h-24.54c-2.05,0-3.72,1.66-3.72,3.72V208.61c0,2.05,1.66,3.72,3.72,3.72h24.54c2.05,0,3.72-1.66,3.72-3.72v-77.35c0-4.59,.75-16.4,7.73-26.78,7.53-11.19,19.61-16.87,35.93-16.87Z"/><path class="cls-1" d="M707.61,87.61c-28.21,0-32.42,21.8-32.42,34.8v86.93c0,1.65-1.34,2.99-2.99,2.99h-24.65c-1.65,0-2.99-1.34-2.99-2.99V116.6c-.02-.28-1.29-23.54,13.28-39.77,9.47-10.56,23.49-15.91,41.65-15.91,28,0,43.36,15.33,48.67,21.93l1.29,1.6v-20.54c0-1.65,1.34-2.99,2.99-2.99h24.65c1.65,0,2.99,1.34,2.99,2.99V209.34c0,1.65-1.34,2.99-2.99,2.99h-24.65c-1.65,0-2.99-1.34-2.99-2.99v-78.08c0-4.59-.72-16.4-7.41-26.78-7.21-11.19-18.79-16.87-34.42-16.87Z"/><rect class="cls-1" x="819.63" y="3.8" width="31.97" height="31.97" rx="1.84" ry="1.84"/></g></g></svg>