<?xml version="1.0" encoding="UTF-8"?><svg id="_图层_2" xmlns="http://www.w3.org/2000/svg" viewBox="0 0 1772.28 275.02"><defs><style>.cls-1{fill:#face1c;}.cls-2{fill:#f75a60;}.cls-3{fill:#59cd6d;}.cls-4{fill:#3382fd;}.cls-5{font-family:PingFangSC-Regular-GBpc-EUC-H, 'PingFang SC';font-size:44.04px;letter-spacing:2.65em;}.cls-6{font-family:PingFangSC-Medium-GBpc-EUC-H, 'PingFang SC';font-size:104.99px;font-weight:500;}</style></defs><g id="_图层_1-2"><g><g><g><path class="cls-2" d="M181.17,0V192.62h-27.08V50.32L181.17,0Z"/><path class="cls-1" d="M154.08,50.32c-1.45,.87-2.44,1.42-3.4,2.05-19.19,12.51-38.39,25-57.51,37.61-2.01,1.33-3.34,1.3-5.31-.02-14.34-9.6-28.74-19.1-43.18-28.55-1.7-1.12-2.44-2.29-2.41-4.38,.12-8.68,.05-17.36,.06-26.04,0-.98,.09-1.96,.16-3.48,1.28,.77,2.2,1.28,3.07,1.85,14.07,9.28,28.16,18.52,42.16,27.9,2.05,1.37,3.43,1.47,5.56,.07C121.54,38.76,149.87,20.32,178.18,1.85c.83-.54,1.69-1.05,2.99-1.85l-27.08,50.32Z"/><path class="cls-4" d="M0,192.62V.16c.96,.55,1.81,.98,2.61,1.5,7.27,4.73,14.49,9.56,21.84,14.17,2.07,1.3,2.7,2.77,2.7,5.14-.07,46.73-.05,93.45-.05,140.18v4.3L0,192.62Z"/><path class="cls-3" d="M27.1,165.44h110.46v27.17H0l27.1-27.17Z"/></g><g><path d="M692.52,149.93c11.6-1.24,20.58-4.35,26.94-9.34,6.36-4.99,10.48-12.57,12.37-22.74h12.71c-.91,6.13-2.51,11.6-4.79,16.43l40.78,14.38v12.71l-47.33-17.01c-9,10.3-22.56,15.97-40.68,17.01v-11.44Zm3.72-44.69h65.03v-5.28h-57.21v-10.46h57.21v-5.18h-65.03v-10.56h77.94v41.95h-77.94v-10.46Zm15.74,16.13l6.16,15.84h-13.2l-6.16-15.84h13.2Zm49.09,0h13.2l-6.16,15.84h-13.2l6.16-15.84Z"/><path d="M790.21,148.75c12.58-2.22,22.03-5.79,28.36-10.71,6.32-4.92,9.49-11.72,9.49-20.39h12.52c0,6.39-1.14,12-3.42,16.82h12.22v13.4h30.22v12.42h-42.73v-25.23c-6.59,13.63-22.13,22.52-46.64,26.7v-13.01Zm4.89-74.32c16.82,0,31-.2,42.54-.59,11.54-.39,23.53-1.11,35.99-2.15v11.93c-11.93,1.04-23.7,1.76-35.3,2.15-11.6,.39-26.01,.59-43.22,.59v-11.93Zm3.72,28.16h70.99v37.26h-12.61v-25.23h-45.76v25.23h-12.62v-37.26Zm14.67-14.57l4.69,12.42h-13.59l-4.69-12.42h13.59Zm25.42,0l4.69,12.42h-13.59l-4.69-12.42h13.59Zm17.8-1.17h13.3l-5.08,13.59h-13.3l5.08-13.59Z"/></g><path d="M410.47,192.76c21.14,0,38.48-16.63,39.6-37.5,.05-.95-.69-1.75-1.63-1.75h-13.57c-.85,0-1.55,.64-1.62,1.49-.96,11.72-10.81,20.96-22.77,20.96s-21.81-9.24-22.77-20.96c-.07-.84-.78-1.49-1.62-1.49h-13.57c-.95,0-1.69,.8-1.63,1.75,1.12,20.87,18.45,37.5,39.6,37.5Z"/><rect class="cls-1" x="256.85" y="49.87" width="16.81" height="16.81" rx="1.58" ry="1.58"/><rect x="256.85" y="81.89" width="16.81" height="79.61" rx="1.63" ry="1.63"/><path d="M327.55,93.93c15.48,0,17.79,11.46,17.79,18.29v45.71c0,.86,.7,1.56,1.56,1.56h13.68c.86,0,1.56-.7,1.56-1.56v-48.77c0-.15,.71-12.37-7.29-20.91-5.2-5.55-12.89-8.36-22.85-8.36-15.37,0-23.8,8.06-26.71,11.53l-.71,.84v-10.81c0-.86-.7-1.56-1.56-1.56h-13.68c-.86,0-1.56,.7-1.56,1.56v76.48c0,.86,.7,1.56,1.56,1.56h13.68c.86,0,1.56-.7,1.56-1.56v-41.06c0-2.42,.4-8.62,4.06-14.08,3.96-5.89,10.31-8.87,18.89-8.87Z"/><path d="M443.01,91.19l-.13-.19h7.25v-16.81h-40.75l-.28,.03c-10.29,.35-19.91,4.64-27.1,12.06-8.26,8.53-12.27,20.14-10.92,32.12,2.13,19,17.93,33.91,37.01,35.03,24.76,1.46,45.04-19.95,41.68-45.04-.83-6.18-3.25-12.04-6.76-17.2Zm-30.19,45.39c-14.43,1.44-26.51-10.64-25.07-25.07,1.07-10.68,9.71-19.32,20.39-20.39,14.43-1.44,26.51,10.64,25.07,25.07-1.07,10.68-9.71,19.32-20.39,20.39Z"/><rect x="226.26" y="49.87" width="16.81" height="111.64" rx="1.98" ry="1.98"/><rect x="634.19" y="81.89" width="16.81" height="79.61" rx="1.79" ry="1.79"/><path d="M523.89,93.93c15.48,0,17.79,11.46,17.79,18.29v45.32c0,1.08,.87,1.95,1.95,1.95h12.9c1.08,0,1.95-.87,1.95-1.95v-48.38c0-.15,.71-12.37-7.29-20.91-5.2-5.55-12.89-8.36-22.85-8.36-15.37,0-23.8,8.06-26.71,11.53l-.71,.84v-10.42c0-1.08-.87-1.95-1.95-1.95h-12.9c-1.08,0-1.95,.87-1.95,1.95v75.7c0,1.08,.87,1.95,1.95,1.95h12.9c1.08,0,1.95-.87,1.95-1.95v-40.67c0-2.42,.4-8.62,4.06-14.08,3.96-5.89,10.31-8.87,18.89-8.87Z"/><path d="M575.3,93.93c-14.83,0-17.05,11.46-17.05,18.29v45.7c0,.87-.7,1.57-1.57,1.57h-12.96c-.87,0-1.57-.7-1.57-1.57v-48.76c0-.15-.68-12.37,6.98-20.91,4.98-5.55,12.35-8.36,21.9-8.36,14.72,0,22.8,8.06,25.59,11.53l.68,.84v-10.8c0-.87,.7-1.57,1.57-1.57h12.96c.87,0,1.57,.7,1.57,1.57v76.46c0,.87-.7,1.57-1.57,1.57h-12.96c-.87,0-1.57-.7-1.57-1.57v-41.05c0-2.42-.38-8.62-3.89-14.08-3.79-5.89-9.88-8.87-18.1-8.87Z"/><rect class="cls-1" x="634.19" y="49.87" width="16.81" height="16.81" rx="1.84" ry="1.84"/></g><text class="cls-6" transform="translate(1028.59 149.21)"><tspan x="0" y="0">让万物皆为数</tspan></text><text class="cls-5" transform="translate(4.12 264.81)"><tspan x="0" y="0">全渠道软件设计研发品牌</tspan></text><path d="M962.44,120.46c-12.57,12.59-24.56,24.6-36.73,36.78-.94-.86-1.63-1.49-2.68-2.45,12.22-12.23,24.3-24.32,36.47-36.5-12.28-12.26-24.3-24.25-36.53-36.46,1.01-1.09,1.71-1.84,2.66-2.87,12.22,12.22,24.21,24.22,36.59,36.6,12.21-12.21,24.19-24.2,36.41-36.42,.91,.79,1.69,1.46,2.68,2.32-12.26,12.22-24.28,24.21-36.25,36.14,12.3,12.24,24.33,24.2,36.52,36.33-1.19,1.5-1.86,2.33-2.59,3.25-12.18-12.23-24.17-24.26-36.58-36.72Z"/></g></g></svg>