<?xml version="1.0" encoding="UTF-8"?><svg xmlns="http://www.w3.org/2000/svg" viewBox="0 0 260 270"><defs><style>.cls-1{fill:#face1c;}.cls-2{fill:#f75a60;}.cls-3{fill:#59cd6d;}.cls-4{fill:#3382fd;}</style></defs><g><path class="cls-2" d="M247.48,0V263.13h-37V68.74L247.48,0Z"/><path class="cls-1" d="M210.48,68.74c-1.98,1.19-3.34,1.95-4.64,2.79-26.21,17.09-52.44,34.15-78.56,51.37-2.75,1.81-4.56,1.77-7.25-.03-19.58-13.12-39.26-26.09-58.98-39-2.33-1.52-3.33-3.12-3.29-5.99,.17-11.85,.06-23.71,.08-35.57,0-1.34,.12-2.68,.23-4.76,1.75,1.05,3,1.74,4.19,2.53,19.22,12.67,38.47,25.3,57.59,38.11,2.8,1.88,4.69,2.01,7.59,.1C166.03,52.95,204.72,27.75,243.4,2.53c1.14-.74,2.31-1.43,4.08-2.53l-37,68.74Z"/><path class="cls-4" d="M0,263.12V.22C1.31,.97,2.48,1.56,3.57,2.27c9.94,6.46,19.79,13.06,29.83,19.36,2.83,1.78,3.69,3.79,3.69,7.03-.09,63.83-.07,127.66-.07,191.48v5.87L0,263.12Z"/><path class="cls-3" d="M37.01,226H187.9v37.12H0l37.01-37.12Z"/></g></svg>
